<svg width="962" height="359" viewBox="0 0 962 359" fill="none" xmlns="http://www.w3.org/2000/svg">
<path d="M84.5228 245.484C100.151 245.484 111.653 240.971 119.03 231.943C126.407 222.819 130.096 209.181 130.096 191.029C130.096 172.781 126.602 159.434 119.613 150.989C112.721 142.447 102.189 138.176 88.0172 138.176H73.0202V245.484H84.5228ZM183.823 188.117C183.823 220.053 174.99 244.708 157.324 262.083C139.754 279.361 115.051 288 83.2123 288H21.1861V96.3883H87.5804C118.254 96.3883 141.938 104.251 158.634 119.976C175.427 135.701 183.823 158.415 183.823 188.117ZM252.381 139.486V288H201.13V139.486H252.381ZM254.42 102.649C254.42 117.598 245.295 125.072 227.047 125.072C208.895 125.072 199.819 117.598 199.819 102.649C199.819 94.7867 201.955 89.0111 206.226 85.3225C210.594 81.634 217.486 79.7897 226.901 79.7897C236.414 79.7897 243.354 81.6825 247.722 85.4681C252.187 89.2538 254.42 94.9808 254.42 102.649ZM406.213 288H370.832L360.931 268.344H359.911C353.214 276.789 346.176 282.613 338.799 285.816C331.519 289.019 322.249 290.621 310.989 290.621C296.914 290.621 285.897 286.398 277.938 277.953C269.978 269.509 265.998 257.763 265.998 242.718C265.998 212.239 287.402 196.125 330.209 194.378L355.107 193.505V191.466C355.107 179.236 349.04 173.12 336.906 173.12C326.229 173.12 312.494 176.76 295.701 184.04L280.85 150.261C298.225 141.331 320.065 136.866 346.371 136.866C365.396 136.866 380.102 141.622 390.488 151.134C400.971 160.647 406.213 173.8 406.213 190.593V288ZM318.269 240.825C318.269 249.949 323.123 254.512 332.83 254.512C339.042 254.512 344.332 252.57 348.7 248.688C353.068 244.805 355.252 239.66 355.252 233.254V221.751L343.458 222.188C326.666 222.965 318.269 229.177 318.269 240.825ZM485.727 235.729C485.727 245.339 490.338 250.144 499.559 250.144C506.354 250.144 514.605 248.445 524.312 245.048V282.322C518.002 285.137 511.596 287.223 505.092 288.582C498.686 289.941 491.211 290.621 482.669 290.621C465.683 290.621 453.306 286.447 445.541 278.099C437.873 269.751 434.039 256.744 434.039 239.078V177.925H416.13V157.104L438.843 140.942L452.093 109.784H485.727V139.486H522.127V177.925H485.727V235.729ZM625.753 136.866C629.053 136.866 634.246 137.399 641.332 138.467L636.819 186.807C632.353 185.739 626.529 185.205 619.346 185.205C597.991 185.205 587.314 195.155 587.314 215.054V288H536.062V139.486H574.21L582.218 163.219H584.693C588.964 155.26 594.934 148.902 602.602 144.146C610.368 139.292 618.084 136.866 625.753 136.866ZM732.244 213.598C732.244 200.396 730.545 190.69 727.148 184.477C723.751 178.168 718.121 175.013 710.258 175.013C702.493 175.013 696.863 178.168 693.368 184.477C689.971 190.787 688.272 200.493 688.272 213.598C688.272 226.605 690.02 236.36 693.514 242.863C697.008 249.367 702.638 252.619 710.404 252.619C718.266 252.619 723.848 249.416 727.148 243.009C730.545 236.506 732.244 226.702 732.244 213.598ZM784.369 213.452C784.369 237.719 777.817 256.647 764.713 270.237C751.706 283.826 733.7 290.621 710.695 290.621C687.69 290.621 669.49 283.68 656.094 269.8C642.796 255.919 636.147 237.039 636.147 213.161C636.147 189.282 642.65 170.597 655.658 157.104C668.762 143.612 687.107 136.866 710.695 136.866C732.729 136.574 750.59 143.515 764.276 157.687C777.963 171.761 784.661 190.35 784.369 213.452ZM944.408 288H893.156V207.045C893.156 187.147 887.186 177.197 875.247 177.197C866.705 177.197 860.444 180.643 856.464 187.535C852.582 194.33 850.64 206.172 850.64 223.062V288H799.388V139.486H838.118L844.525 157.832H847.583C856.319 143.854 871.267 136.866 892.428 136.866C908.832 136.866 921.597 141.67 930.721 151.28C939.845 160.793 944.408 174.188 944.408 191.466V288Z" fill="#2675EC"/>
</svg>
