<svg width="99" height="99" viewBox="0 0 99 99" fill="none" xmlns="http://www.w3.org/2000/svg">
<rect x="1" y="1.2666" width="97" height="97" rx="10" fill="white" stroke="#F8F8F8"/>
<path d="M45.3894 82.0161C62.3369 82.0161 76.0757 68.2774 76.0757 51.3298C76.0757 34.3823 62.3369 20.6436 45.3894 20.6436C28.4418 20.6436 14.7031 34.3823 14.7031 51.3298C14.7031 68.2774 28.4418 82.0161 45.3894 82.0161Z" fill="#5369F8" fill-opacity="0.13"/>
<path d="M31.55 60.9454V57.7997C31.55 50.0347 37.8449 43.7397 45.6099 43.7397H42.6879C34.9228 43.7397 28.6279 50.0347 28.6279 57.7997V60.9454C28.6279 68.7105 34.9228 75.0054 42.6879 75.0054H45.6099C37.8449 75.0054 31.55 68.7105 31.55 60.9454Z" fill="#5369F8"/>
<path d="M76.9707 53.0899H76.4029V39.3039C78.2993 38.909 79.6531 37.2294 79.6359 35.2918C79.6228 33.033 77.7874 31.209 75.5285 31.209C73.2697 31.209 71.4349 33.033 71.4217 35.2918C71.4023 37.2282 72.7543 38.909 74.6502 39.3039V53.0899H74.3523C72.2864 46.4788 66.1615 41.98 59.2354 41.9862H42.7277C35.8016 41.98 29.6767 46.4788 27.6108 53.0899H24.9918C21.1161 53.0899 17.9624 56.2996 17.9624 60.1758C17.9624 64.0521 21.1161 67.2617 24.9918 67.2617H28.2077C30.7394 73.0236 36.4339 76.7486 42.7277 76.7583H59.2348C65.5286 76.7486 71.2231 73.0236 73.7548 67.2617H76.9707C80.8464 67.2617 84.0001 64.0521 84.0001 60.1758C84.0001 56.2996 80.8464 53.0899 76.9707 53.0899ZM73.1784 35.2918C73.1784 33.9918 74.2325 32.9382 75.532 32.9382C76.832 32.9382 77.8856 33.9923 77.8856 35.2918C77.8856 36.5919 76.832 37.6454 75.532 37.6454C74.2325 37.6443 73.1795 36.5913 73.1784 35.2918ZM24.9918 65.5085C22.0823 65.5085 19.7156 63.0853 19.7156 60.1758C19.7156 57.2664 22.0823 54.8431 24.9918 54.8431H27.1805C26.9944 55.8122 26.8917 56.7955 26.8746 57.7817V60.9343C26.8894 62.4843 27.1234 64.0241 27.5697 65.5085H24.9918ZM73.1886 60.9451C73.1886 68.7102 66.8937 75.0051 59.1287 75.0051H42.6877C34.9227 75.0051 28.6278 68.7102 28.6278 60.9451V57.7994C28.6278 50.0343 34.9227 43.7394 42.6877 43.7394H59.1287C66.8937 43.7394 73.1886 50.0343 73.1886 57.7994V60.9451ZM76.9707 65.5085H74.3928C74.8391 64.0241 75.0731 62.4843 75.088 60.9343V57.7817C75.0708 56.7955 74.9681 55.8122 74.7821 54.8431H76.9707C79.8802 54.8431 82.2469 57.2664 82.2469 60.1758C82.2469 63.0853 79.8802 65.5085 76.9707 65.5085Z" fill="#5369F8"/>
<path d="M66.1644 66.6775C68.8673 66.6775 71.0588 64.4859 71.0588 61.7831C71.0588 59.0796 68.8673 56.8887 66.1644 56.8887H35.7982C33.0953 56.8887 30.9038 59.0796 30.9038 61.7831C30.9038 64.4859 33.0953 66.6775 35.7982 66.6775H66.1644ZM32.637 61.7831C32.6388 60.947 32.9732 60.1457 33.5662 59.5567C34.1591 58.9672 34.9627 58.6379 35.7982 58.6419H66.1644C67.8988 58.6419 69.3056 60.0481 69.3056 61.7831C69.3056 63.5174 67.8988 64.9242 66.1644 64.9242H35.7982C34.9627 64.9277 34.1591 64.5984 33.5662 64.0094C32.9732 63.4199 32.6388 62.6191 32.637 61.7831Z" fill="#5369F8"/>
<path d="M38.8551 60.103H40.4622C40.9462 60.103 41.3388 60.4951 41.3388 60.9796V62.5867C41.3388 63.0707 40.9462 63.4634 40.4622 63.4634H38.8551C38.3712 63.4634 37.9785 63.0707 37.9785 62.5867V60.9796C37.9785 60.4951 38.3712 60.103 38.8551 60.103Z" fill="#5369F8"/>
<path d="M61.5006 60.103H63.1077C63.5917 60.103 63.9844 60.4951 63.9844 60.9796V62.5867C63.9844 63.0707 63.5917 63.4634 63.1077 63.4634H61.5006C61.0167 63.4634 60.624 63.0707 60.624 62.5867V60.9796C60.624 60.4951 61.0167 60.103 61.5006 60.103Z" fill="#5369F8"/>
<path d="M20.5038 46.8547C20.0693 46.8547 19.6343 46.6886 19.3026 46.3569L14.4976 41.5519C13.8341 40.8885 13.8341 39.813 14.4976 39.1495C15.1611 38.486 16.2366 38.486 16.9001 39.1495L21.7051 43.9544C22.3685 44.6179 22.3685 45.6934 21.7051 46.3569C21.3733 46.6886 20.9388 46.8547 20.5038 46.8547Z" fill="#5369F8"/>
<path d="M15.6989 46.8547C15.2643 46.8547 14.8294 46.6886 14.4976 46.3569C13.8341 45.6934 13.8341 44.6179 14.4976 43.9544L19.3026 39.1495C19.9661 38.486 21.0416 38.486 21.7051 39.1495C22.3685 39.813 22.3685 40.8885 21.7051 41.5519L16.9001 46.3569C16.5684 46.6886 16.1334 46.8547 15.6989 46.8547Z" fill="#5369F8"/>
<path d="M29.995 39.3547C30.9333 39.3547 31.694 38.594 31.694 37.6556C31.694 36.7172 30.9333 35.9565 29.995 35.9565C29.0566 35.9565 28.2959 36.7172 28.2959 37.6556C28.2959 38.594 29.0566 39.3547 29.995 39.3547Z" fill="#5369F8"/>
<path d="M24.8973 20.6647C25.8357 20.6647 26.5964 19.904 26.5964 18.9657C26.5964 18.0273 25.8357 17.2666 24.8973 17.2666C23.9589 17.2666 23.1982 18.0273 23.1982 18.9657C23.1982 19.904 23.9589 20.6647 24.8973 20.6647Z" fill="#5369F8"/>
</svg>
