<svg width="41" height="41" viewBox="0 0 41 41" fill="none" xmlns="http://www.w3.org/2000/svg">
<path d="M26.621 30.7872C26.7711 28.9711 27.3586 27.2181 28.3333 25.6782C29.2667 24.2055 30.4976 22.9311 31.3187 21.3862C32.9772 18.2681 33.7276 16.0356 33.4145 12.5144C32.747 5.85915 27.1737 0.775131 20.4853 0.720703H20.501C13.8126 0.775131 8.239 5.85915 7.57148 12.5144C7.25867 16.0356 8.00909 18.2681 9.66727 21.3862C10.4874 22.9311 11.7174 24.2055 12.653 25.6782C13.6277 27.2181 14.2151 28.9711 14.3653 30.7872H26.621Z" fill="#F0C419"/>
<path d="M10.2933 13.4403C10.2733 13.4403 10.253 13.4403 10.2324 13.4403C9.85667 13.4069 9.5789 13.0753 9.61206 12.6996C10.2161 7.11979 14.881 2.86314 20.4927 2.77148C20.8702 2.77148 21.1762 3.07741 21.1762 3.45465C21.1762 3.83221 20.8702 4.13813 20.4927 4.13813C15.5854 4.21727 11.5048 7.93746 10.9731 12.8163C10.9424 13.1691 10.6474 13.4397 10.2933 13.4403Z" fill="white"/>
<path d="M25.9664 34.8867V38.3032C25.9664 39.4355 25.0486 40.3533 23.9166 40.3533H17.083C17.0145 40.3555 16.9457 40.3511 16.8781 40.3395H16.8712C16.3364 40.2879 15.8443 40.0249 15.5046 39.6085C15.1993 39.2422 15.0326 38.7802 15.0332 38.3032V34.8867H25.9664Z" fill="#A5A5A4"/>
<path d="M18.451 31.4718C18.0737 31.4718 17.7678 31.1659 17.7678 30.7883V19.1717H15.7177C14.2081 19.1717 12.9844 17.948 12.9844 16.4384C12.9844 14.9288 14.2081 13.7051 15.7177 13.7051H16.4011C17.9107 13.7051 19.1344 14.9288 19.1344 16.4384V17.805H20.5011C20.8783 17.805 21.1846 18.1109 21.1846 18.4885C21.1846 18.8657 20.8783 19.1717 20.5011 19.1717H19.1344V30.7883C19.1344 31.1659 18.8285 31.4718 18.451 31.4718ZM15.7177 15.0717C14.9629 15.0717 14.351 15.6836 14.351 16.4384C14.351 17.1932 14.9629 17.805 15.7177 17.805H17.7678V16.4384C17.7678 15.6836 17.1559 15.0717 16.4011 15.0717H15.7177Z" fill="#E57E25"/>
<path d="M22.55 31.4718C22.1725 31.4718 21.8665 31.1659 21.8665 30.7883V19.1717H20.4999C20.1226 19.1717 19.8164 18.8657 19.8164 18.4885C19.8164 18.1109 20.1226 17.805 20.4999 17.805H21.8665V16.4384C21.8665 14.9288 23.0902 13.7051 24.5998 13.7051H25.2833C26.7929 13.7051 28.0166 14.9288 28.0166 16.4384C28.0166 17.948 26.7929 19.1717 25.2833 19.1717H23.2332V30.7883C23.2332 31.1659 22.9273 31.4718 22.55 31.4718ZM23.2332 17.805H25.2833C26.0381 17.805 26.6499 17.1932 26.6499 16.4384C26.6499 15.6836 26.0381 15.0717 25.2833 15.0717H24.5998C23.845 15.0717 23.2332 15.6836 23.2332 16.4384V17.805Z" fill="#E57E25"/>
<path d="M4.09994 14.3862H0.683479C0.305923 14.3862 0 14.0803 0 13.7027C0 13.3255 0.305923 13.0195 0.683479 13.0195H4.09994C4.47749 13.0195 4.78342 13.3255 4.78342 13.7027C4.78342 14.0803 4.47749 14.3862 4.09994 14.3862Z" fill="#F29C1F"/>
<path d="M3.33964 24.2954C3.03028 24.2954 2.7597 24.0877 2.67962 23.7889C2.59955 23.4902 2.72999 23.1749 2.99806 23.0204L5.95688 21.3121C6.28314 21.1263 6.69854 21.2393 6.88623 21.5643C7.07422 21.8896 6.96412 22.3056 6.64005 22.4955L3.68123 24.204C3.57737 24.2638 3.45945 24.2954 3.33964 24.2954Z" fill="#F29C1F"/>
<path d="M37.6617 24.2959C37.5419 24.2962 37.4239 24.2646 37.3201 24.2045L34.3613 22.496C34.1483 22.3749 34.0163 22.1488 34.0156 21.9035C34.0153 21.6583 34.1461 21.4315 34.3588 21.3095C34.5712 21.1875 34.833 21.1885 35.0448 21.3126L38.0036 23.0209C38.2713 23.1754 38.4018 23.4907 38.3217 23.7894C38.2416 24.0882 37.971 24.2959 37.6617 24.2959Z" fill="#F29C1F"/>
<path d="M40.3167 14.3862H36.9003C36.5227 14.3862 36.2168 14.0803 36.2168 13.7027C36.2168 13.3255 36.5227 13.0195 36.9003 13.0195H40.3167C40.6943 13.0195 41.0002 13.3255 41.0002 13.7027C41.0002 14.0803 40.6943 14.3862 40.3167 14.3862Z" fill="#F29C1F"/>
<path d="M34.7029 6.1866C34.3936 6.1866 34.1227 5.9789 34.0429 5.68017C33.9628 5.38144 34.0933 5.06613 34.361 4.91161L37.3199 3.20338C37.5316 3.0792 37.7931 3.07795 38.0058 3.20025C38.2185 3.32225 38.3493 3.54903 38.349 3.79427C38.3484 4.03951 38.2164 4.26567 38.0033 4.38672L35.0445 6.09526C34.9407 6.15532 34.8227 6.18692 34.7029 6.1866Z" fill="#F29C1F"/>
<path d="M6.2964 6.18605C6.1766 6.18605 6.05867 6.15446 5.95482 6.09471L2.99599 4.38617C2.67193 4.1963 2.56213 3.78026 2.74981 3.45495C2.9375 3.12963 3.3529 3.01702 3.67947 3.20283L6.6383 4.91105C6.90606 5.06558 7.0365 5.38089 6.95642 5.67962C6.87634 5.97835 6.60576 6.18605 6.2964 6.18605Z" fill="#F29C1F"/>
<path d="M25.4874 34.8865C25.4852 35.1271 25.3585 35.3495 25.1527 35.474L16.8774 40.3393H16.8706C16.3357 40.2877 15.8436 40.0247 15.5039 39.6083C15.5521 39.5533 15.6071 39.5051 15.6678 39.4647L23.4579 34.8865L24.4555 34.2987C24.7801 34.1064 25.1993 34.2134 25.3917 34.538C25.4527 34.6441 25.4855 34.7639 25.4874 34.8865Z" fill="#5E5F62"/>
<path d="M15.0345 30.7871H25.9677C27.1 30.7871 28.0178 31.7052 28.0178 32.8372C28.0178 33.9696 27.1 34.8874 25.9677 34.8874H15.0345C13.9021 34.8874 12.9844 33.9696 12.9844 32.8372C12.9844 31.7052 13.9021 30.7871 15.0345 30.7871Z" fill="#D1D4D1"/>
</svg>
