<svg width="35" height="35" viewBox="0 0 35 35" fill="none" xmlns="http://www.w3.org/2000/svg">
<path d="M28.3119 29.3366C28.1578 29.3366 28.0013 29.3017 27.8542 29.2281L6.22895 18.4156C5.88154 18.2419 5.66211 17.8868 5.66211 17.4984C5.66211 17.11 5.88154 16.755 6.22895 16.5812L27.8542 5.76866C28.3607 5.51532 28.9766 5.72074 29.2298 6.22722C29.4831 6.73376 29.2778 7.34961 28.7713 7.60295L8.98034 17.4984L28.7713 27.3938C29.2778 27.6471 29.4831 28.263 29.2298 28.7695C29.0502 29.1288 28.688 29.3366 28.3119 29.3366Z" fill="#B3DAFE"/>
<path d="M28.3114 12.8611C31.7216 12.8611 34.4861 10.0966 34.4861 6.68642C34.4861 3.27623 31.7216 0.511719 28.3114 0.511719C24.9012 0.511719 22.1367 3.27623 22.1367 6.68642C22.1367 10.0966 24.9012 12.8611 28.3114 12.8611Z" fill="#EAF6FF"/>
<path d="M28.3125 0.511719C27.9631 0.511719 27.6206 0.541182 27.2871 0.596963C30.2092 1.08546 32.4364 3.62563 32.4364 6.68642C32.4364 9.74721 30.2092 12.2874 27.2871 12.7759C27.6206 12.8316 27.9631 12.8611 28.3125 12.8611C31.7227 12.8611 34.4872 10.0966 34.4872 6.68642C34.4872 3.27624 31.7227 0.511719 28.3125 0.511719Z" fill="#D8ECFE"/>
<path d="M28.3116 7.70312C26.206 7.70312 24.4771 9.31305 24.2871 11.369C25.3679 12.2987 26.7741 12.8608 28.3116 12.8608C29.849 12.8608 31.2552 12.2987 32.336 11.369C32.146 9.31305 30.4171 7.70312 28.3116 7.70312Z" fill="#AEE49E"/>
<path d="M27.2891 12.7762C27.6218 12.8317 27.9631 12.862 28.3115 12.862C29.8491 12.862 31.2551 12.2998 32.336 11.3702C32.2753 10.7132 32.0568 10.1022 31.7197 9.57422C30.8368 11.24 29.2141 12.4534 27.2891 12.7762Z" fill="#8BD8A5"/>
<path d="M28.3103 8.55512C27.1326 8.55512 26.1777 7.60034 26.1777 6.42251V5.60917C26.1777 4.43141 27.1325 3.47656 28.3103 3.47656C29.4881 3.47656 30.4429 4.43134 30.4429 5.60917V6.42258C30.4429 7.60034 29.4881 8.55512 28.3103 8.55512Z" fill="#FFCEBF"/>
<path d="M28.3125 3.47656C27.9408 3.47656 27.5914 3.57186 27.2871 3.73906C27.947 4.10164 28.3943 4.80308 28.3943 5.60917V6.42258C28.3943 7.22867 27.947 7.93011 27.2871 8.29269C27.5914 8.45989 27.9408 8.55519 28.3125 8.55519C29.4903 8.55519 30.4451 7.60041 30.4451 6.42258V5.60917C30.4451 4.43141 29.4903 3.47656 28.3125 3.47656Z" fill="#FFB09E"/>
<path d="M28.3114 34.4861C31.7216 34.4861 34.4861 31.7216 34.4861 28.3114C34.4861 24.9012 31.7216 22.1367 28.3114 22.1367C24.9012 22.1367 22.1367 24.9012 22.1367 28.3114C22.1367 31.7216 24.9012 34.4861 28.3114 34.4861Z" fill="#EAF6FF"/>
<path d="M28.3125 22.1367C27.9631 22.1367 27.6206 22.1662 27.2871 22.222C30.2092 22.7105 32.4364 25.2506 32.4364 28.3114C32.4364 31.3722 30.2092 33.9124 27.2871 34.4009C27.6206 34.4567 27.9631 34.4861 28.3125 34.4861C31.7227 34.4861 34.4872 31.7216 34.4872 28.3114C34.4872 24.9012 31.7227 22.1367 28.3125 22.1367Z" fill="#D8ECFE"/>
<path d="M28.3116 29.3281C26.206 29.3281 24.4771 30.9381 24.2871 32.994C25.3679 33.9237 26.7741 34.4858 28.3116 34.4858C29.849 34.4858 31.2552 33.9237 32.336 32.994C32.146 30.9381 30.4171 29.3281 28.3116 29.3281Z" fill="#FDDF80"/>
<path d="M27.2891 34.4012C27.6218 34.4567 27.9631 34.487 28.3115 34.487C29.8491 34.487 31.2551 33.9248 32.336 32.9952C32.2753 32.3382 32.0568 31.7272 31.7197 31.1992C30.8368 32.865 29.2141 34.0784 27.2891 34.4012Z" fill="#F9D070"/>
<path d="M28.3103 30.1802C27.1326 30.1802 26.1777 29.2254 26.1777 28.0476V27.2342C26.1777 26.0564 27.1325 25.1016 28.3103 25.1016C29.4881 25.1016 30.4429 26.0563 30.4429 27.2342V28.0476C30.4429 29.2254 29.4881 30.1802 28.3103 30.1802Z" fill="#FFCEBF"/>
<path d="M28.3125 25.1016C27.9408 25.1016 27.5914 25.1969 27.2871 25.3641C27.947 25.7266 28.3943 26.4281 28.3943 27.2342V28.0476C28.3943 28.8537 27.947 29.5551 27.2871 29.9177C27.5914 30.0849 27.9408 30.1802 28.3125 30.1802C29.4903 30.1802 30.4451 29.2254 30.4451 28.0476V27.2342C30.4451 26.0563 29.4903 25.1016 28.3125 25.1016Z" fill="#FFB09E"/>
<path d="M6.68642 23.6736C10.0966 23.6736 12.8611 20.9091 12.8611 17.4989C12.8611 14.0887 10.0966 11.3242 6.68642 11.3242C3.27623 11.3242 0.511719 14.0887 0.511719 17.4989C0.511719 20.9091 3.27623 23.6736 6.68642 23.6736Z" fill="#EAF6FF"/>
<path d="M6.6875 11.3242C6.33812 11.3242 5.99563 11.3537 5.66211 11.4095C8.5842 11.898 10.8114 14.4381 10.8114 17.4989C10.8114 20.5597 8.5842 23.0999 5.66211 23.5884C5.99563 23.6441 6.33812 23.6736 6.6875 23.6736C10.0977 23.6736 12.8622 20.9091 12.8622 17.4989C12.8622 14.0887 10.0977 11.3242 6.6875 11.3242Z" fill="#D8ECFE"/>
<path d="M6.68656 18.5156C4.58103 18.5156 2.85215 20.1256 2.66211 22.1815C3.74294 23.1112 5.14909 23.6733 6.68656 23.6733C8.22403 23.6733 9.63019 23.1112 10.711 22.1815C10.521 20.1256 8.7921 18.5156 6.68656 18.5156Z" fill="#F58A97"/>
<path d="M5.66406 23.5887C5.99677 23.6442 6.33809 23.6745 6.68651 23.6745C8.22405 23.6745 9.63013 23.1123 10.711 22.1827C10.6503 21.5257 10.4318 20.9147 10.0947 20.3867C9.21177 22.0525 7.58906 23.2659 5.66406 23.5887Z" fill="#F07281"/>
<path d="M6.68534 19.3677C5.50758 19.3677 4.55273 18.4129 4.55273 17.2351V16.4217C4.55273 15.2439 5.50751 14.2891 6.68534 14.2891C7.8631 14.2891 8.81795 15.2438 8.81795 16.4217V17.2351C8.81795 18.4129 7.86317 19.3677 6.68534 19.3677Z" fill="#FFCEBF"/>
<path d="M6.6875 14.2891C6.31576 14.2891 5.96638 14.3844 5.66211 14.5516C6.32198 14.9141 6.76933 15.6156 6.76933 16.4217V17.2351C6.76933 18.0412 6.32198 18.7426 5.66211 19.1052C5.96638 19.2724 6.31576 19.3677 6.6875 19.3677C7.86527 19.3677 8.82011 18.4129 8.82011 17.2351V16.4217C8.82011 15.2438 7.86533 14.2891 6.6875 14.2891Z" fill="#FFB09E"/>
<path d="M33.6345 25.1378C33.3802 25.2624 33.2752 25.5695 33.3998 25.8238C33.7812 26.6018 33.9745 27.4392 33.9745 28.3126C33.9745 29.7004 33.4718 30.9724 32.64 31.9582C32.2887 30.8943 31.5496 29.9812 30.574 29.4191C30.8174 29.0191 30.9578 28.5497 30.9578 28.0481V27.2348C30.9578 25.7762 29.7711 24.5895 28.3125 24.5895C26.854 24.5895 25.6673 25.7761 25.6673 27.2348V28.0481C25.6673 28.5496 25.8076 29.019 26.0509 29.419C25.0752 29.9811 24.3361 30.8944 23.985 31.9582C23.1533 30.9724 22.6505 29.7004 22.6505 28.3126C22.6505 25.1906 25.1905 22.6506 28.3125 22.6506C29.69 22.6506 31.0176 23.1511 32.0507 24.0599C32.2632 24.2469 32.5873 24.2262 32.7743 24.0136C32.9613 23.801 32.9406 23.477 32.728 23.29C31.5076 22.2164 29.9395 21.6251 28.3125 21.6251C26.254 21.6251 24.4101 22.5603 23.1824 24.0278L13.1964 19.0345C13.3126 18.5415 13.3747 18.0279 13.3747 17.4999C13.3747 16.972 13.3129 16.4582 13.1967 15.9653L23.1822 10.9722C24.4186 12.4541 26.3526 13.3747 28.3125 13.3747C31.9586 13.3747 34.9999 10.3779 34.9999 6.68732C35 2.99995 32 0 28.3126 0C24.6252 0 21.6252 2.99995 21.6252 6.68739C21.6252 7.2154 21.6873 7.72912 21.8036 8.22213L17.7903 10.2288C17.5371 10.3555 17.4344 10.6634 17.561 10.9167C17.6891 11.1728 18.0003 11.2707 18.2489 11.1459L22.1199 9.2104C22.2502 9.52889 22.404 9.83527 22.5798 10.1271L12.8803 14.9771C12.75 14.6586 12.5962 14.3523 12.4204 14.0604L16.091 12.2249C16.3442 12.0982 16.4469 11.7904 16.3203 11.537C16.1937 11.2838 15.8858 11.1811 15.6324 11.3077L11.8177 13.2152C10.59 11.7476 8.74597 10.8124 6.68746 10.8124C2.99995 10.8126 0 13.8126 0 17.5C0 21.1515 3.04979 24.1874 6.68739 24.1874C8.67214 24.1874 10.5954 23.2546 11.8178 21.7847L21.8032 26.7777C21.687 27.2707 21.6252 27.7846 21.6252 28.3126C21.6252 31.9631 24.6765 35 28.3126 35C31.9578 35 35 32.003 35 28.3126C35 27.2814 34.7714 26.2922 34.3206 25.3725C34.1959 25.1183 33.8889 25.0132 33.6345 25.1378ZM28.3126 12.3494C27.002 12.3494 25.7949 11.9005 24.8343 11.1501C25.026 10.0372 25.7556 9.06664 26.7714 8.57083C27.2058 8.88337 27.7379 9.06821 28.3126 9.06821C28.8873 9.06821 29.4193 8.88344 29.8536 8.57097C30.8692 9.06678 31.5988 10.0372 31.7911 11.15C30.8304 11.9005 29.6233 12.3494 28.3126 12.3494ZM26.6928 6.42291V5.60957C26.6928 4.71639 27.4194 3.98966 28.3126 3.98966C29.2058 3.98966 29.9325 4.71632 29.9325 5.60957V6.42291C29.9325 7.31609 29.2058 8.04282 28.3126 8.04282C27.4194 8.04282 26.6928 7.31616 26.6928 6.42291ZM28.3126 1.02539C31.4346 1.02539 33.9746 3.56535 33.9746 6.68739C33.9746 8.07516 33.4719 9.34719 32.6402 10.3329C32.2888 9.26933 31.5498 8.35604 30.5743 7.79365C30.8176 7.39368 30.9578 6.92433 30.9578 6.42291V5.60957C30.9578 4.15099 29.7712 2.96427 28.3126 2.96427C26.854 2.96427 25.6674 4.15092 25.6674 5.60957V6.42291C25.6674 6.92426 25.8076 7.39355 26.0509 7.79352C25.0752 8.35591 24.3361 9.26926 23.985 10.3329C23.1533 9.34712 22.6506 8.07516 22.6506 6.68739C22.6506 3.56535 25.1906 1.02539 28.3126 1.02539ZM6.68739 23.162C5.37667 23.162 4.16951 22.7131 3.20886 21.9626C3.40102 20.8495 4.13089 19.8792 5.14685 19.3838C5.58106 19.6961 6.1129 19.8808 6.68739 19.8808C7.26189 19.8808 7.79379 19.6961 8.22808 19.3838C9.24431 19.8792 9.97411 20.8497 10.1658 21.9626C9.20514 22.7131 7.99805 23.162 6.68739 23.162ZM5.06755 17.2355V16.4222C5.06755 15.529 5.79421 14.8023 6.68739 14.8023C7.58058 14.8023 8.30724 15.5289 8.30724 16.4222V17.2355C8.30724 18.1287 7.58058 18.8554 6.68739 18.8554C5.79421 18.8554 5.06755 18.1288 5.06755 17.2355ZM11.015 21.1455C10.6639 20.0818 9.92482 19.1687 8.94893 18.6065C9.19235 18.2065 9.3327 17.7371 9.3327 17.2355V16.4222C9.3327 14.9636 8.14604 13.7769 6.68746 13.7769C5.22888 13.7769 4.04223 14.9635 4.04223 16.4222V17.2355C4.04223 17.7371 4.18257 18.2066 4.42606 18.6066C3.45037 19.1686 2.7112 20.0817 2.3599 21.1454C1.52811 20.1597 1.02539 18.8877 1.02539 17.5C1.02539 14.378 3.56535 11.838 6.68739 11.838C9.80943 11.838 12.3494 14.378 12.3494 17.5C12.3494 18.8877 11.8467 20.1597 11.015 21.1455ZM22.1198 25.7896L12.4203 20.9396C12.5961 20.6477 12.7499 20.3413 12.8802 20.0228L22.5797 24.8728C22.404 25.1647 22.25 25.4711 22.1198 25.7896ZM26.6928 27.2348C26.6928 26.3416 27.4194 25.6149 28.3126 25.6149C29.2058 25.6149 29.9325 26.3415 29.9325 27.2348V28.0481C29.9325 28.9413 29.2058 29.668 28.3126 29.668C27.4194 29.668 26.6928 28.9414 26.6928 28.0481V27.2348ZM28.3126 33.9746C27.002 33.9746 25.7949 33.5258 24.8343 32.7753C25.0261 31.6622 25.7558 30.6918 26.7718 30.1962C27.2061 30.5087 27.738 30.6934 28.3126 30.6934C28.8872 30.6934 29.4191 30.5087 29.8533 30.1963C30.869 30.6916 31.5987 31.6619 31.791 32.7752C30.8304 33.5257 29.6233 33.9746 28.3126 33.9746Z" fill="black"/>
</svg>
