<svg width="31" height="31" viewBox="0 0 31 31" fill="none" xmlns="http://www.w3.org/2000/svg">
<path d="M10.1543 12.3496C10.9903 12.3496 11.668 11.6719 11.668 10.8359C11.668 9.99996 10.9903 9.32227 10.1543 9.32227C9.31832 9.32227 8.64062 9.99996 8.64062 10.8359C8.64062 11.6719 9.31832 12.3496 10.1543 12.3496Z" fill="#F87023"/>
<path d="M20.8457 12.3496C21.6817 12.3496 22.3594 11.6719 22.3594 10.8359C22.3594 9.99996 21.6817 9.32227 20.8457 9.32227C20.0097 9.32227 19.332 9.99996 19.332 10.8359C19.332 11.6719 20.0097 12.3496 20.8457 12.3496Z" fill="#F8AF23"/>
<path d="M23.6979 27.0175H7.30469L7.56964 24.8311C7.56964 23.0986 8.25786 21.4371 9.4829 20.2121C10.7079 18.987 12.3695 18.2988 14.1019 18.2988H16.9005C17.7584 18.2988 18.6078 18.4678 19.4004 18.796C20.1929 19.1243 20.913 19.6055 21.5196 20.212C22.1262 20.8186 22.6074 21.5387 22.9357 22.3313C23.264 23.1238 23.4329 23.9733 23.4329 24.8311L23.6979 27.0175Z" fill="#63BCE7"/>
<path d="M17.1348 15.5742C17.1348 14.6714 16.4029 13.9395 15.5 13.9395C14.5971 13.9395 13.8652 14.6714 13.8652 15.5742V18.7734C13.8652 19.6762 14.5971 20.4082 15.5 20.4082C16.4029 20.4082 17.1348 19.6762 17.1348 18.7734V15.5742Z" fill="#F8AF23"/>
<path d="M13.8652 15.5731V18.7723C13.8666 19.1674 14.0105 19.5488 14.2704 19.8464C14.5304 20.144 14.889 20.3378 15.2803 20.3923V13.9531C14.889 14.0076 14.5304 14.2014 14.2704 14.499C14.0105 14.7966 13.8666 15.178 13.8652 15.5731Z" fill="#F87023"/>
<path d="M20.8461 9.23655C20.8461 6.28408 18.4527 3.89062 15.5002 3.89062C12.5477 3.89062 10.1543 6.28408 10.1543 9.23655V11.8741C10.1543 14.8266 12.5477 17.22 15.5002 17.22C18.4527 17.22 20.8461 14.8266 20.8461 11.8741V9.23655Z" fill="#F8AF23"/>
<path d="M12.3945 11.8741V9.23655C12.3985 8.01441 12.8196 6.83025 13.5881 5.87995C14.3566 4.92964 15.4265 4.27013 16.6207 4.01051C16.2526 3.93097 15.8772 3.89078 15.5006 3.89062C14.084 3.89468 12.7265 4.4592 11.7248 5.46087C10.7231 6.46254 10.1585 7.81994 10.1543 9.23655V11.8741C10.1584 13.2906 10.723 14.648 11.7247 15.6496C12.7263 16.6513 14.0837 17.2159 15.5002 17.22C15.8768 17.2199 16.2523 17.1797 16.6203 17.1001C15.4262 16.8404 14.3564 16.1809 13.588 15.2306C12.8196 14.2803 12.3985 13.0962 12.3945 11.8741Z" fill="#F87023"/>
<path d="M13.8646 18.3021L15.4993 20.4321L13.7284 21.3857L13.0117 18.3882L13.8646 17.4199V18.3021Z" fill="#F46275"/>
<path d="M17.1348 18.3021L15.5 20.4321L17.271 21.3857L17.9876 18.3882L17.1348 17.4199V18.3021Z" fill="#F46275"/>
<path d="M19.9565 3.43359C19.5524 3.43325 19.1533 3.52348 18.7887 3.69767C18.4241 3.87186 18.1031 4.12556 17.8494 4.44013C17.119 4.0791 16.315 3.8915 15.5002 3.89193C14.0837 3.89609 12.7264 4.46063 11.7247 5.46227C10.7231 6.4639 10.1585 7.82121 10.1543 9.23774V10.422H11.0349V9.70758C11.0349 9.70758 12.8176 9.25784 12.8345 7.29007C12.8345 7.29007 15.1028 9.30374 19.1903 8.74174C19.563 8.85173 19.955 8.88026 20.3397 8.82541C20.7244 8.77056 21.0928 8.6336 21.4199 8.42382C21.747 8.21405 22.0251 7.93638 22.2355 7.60963C22.4458 7.28289 22.5834 6.91473 22.6389 6.53013C22.6944 6.14553 22.6666 5.75349 22.5572 5.38061C22.4479 5.00773 22.2596 4.66273 22.0051 4.36902C21.7507 4.07531 21.4361 3.83977 21.0826 3.67837C20.7291 3.51697 20.3451 3.43349 19.9565 3.43359Z" fill="#9E9E9E"/>
<path d="M16.6174 4.01172C16.2504 3.93188 15.8759 3.89128 15.5002 3.89062C14.0836 3.89478 12.7262 4.45941 11.7245 5.46117C10.7228 6.46293 10.1583 7.8204 10.1543 9.23703V10.4213H11.0349V9.70688C11.5963 9.53714 12.0846 9.18391 12.4214 8.70374C12.5384 7.57968 13.0068 6.52114 13.7602 5.67874C14.5135 4.83634 15.5134 4.253 16.6174 4.01172Z" fill="#707070"/>
<path d="M24.7059 16.7012L27.8975 17.846L24.6075 27.0178H22.8012C22.0362 26.7434 21.6387 25.2527 21.9129 24.4876L24.7059 16.7012Z" fill="#63BCE7"/>
<path d="M27.8974 17.8467L25.9126 17.1348L22.3672 27.0184H24.6074L27.8974 17.8467Z" fill="#63E2E7"/>
<path d="M27.5723 18.7832L24.3817 17.6372L24.7194 16.6969L27.91 17.8429L27.5723 18.7832Z" fill="#F46275"/>
<path d="M25.5801 18.0879L25.9178 17.1476L27.9021 17.8603L27.5644 18.8006L25.5801 18.0879Z" fill="#F48875"/>
<path d="M27.4569 17.6874L29.791 16.7792C29.8505 16.756 29.9017 16.7153 29.9378 16.6626C29.9739 16.6098 29.9932 16.5474 29.9932 16.4834V16.247C29.9932 16.1628 29.9598 16.0821 29.9003 16.0226C29.8408 15.9631 29.7601 15.9297 29.6759 15.9297H25.6984C25.5611 15.9297 25.4275 15.9735 25.3169 16.0547C25.2063 16.1358 25.1245 16.2502 25.0834 16.3811L24.9551 16.7898L27.4569 17.6874Z" fill="#F8AF23"/>
<path d="M29.6756 15.9297H27.4354C27.5195 15.9297 27.6002 15.9631 27.6597 16.0226C27.7192 16.0821 27.7526 16.1628 27.7526 16.247V16.4835C27.7526 16.5474 27.7333 16.6098 27.6972 16.6626C27.6611 16.7153 27.61 16.756 27.5504 16.7792L26.291 17.2692L27.4567 17.6874L29.7907 16.7792C29.8503 16.756 29.9015 16.7153 29.9376 16.6626C29.9737 16.6098 29.993 16.5474 29.993 16.4835V16.247C29.993 16.2053 29.9848 16.164 29.9688 16.1255C29.9529 16.087 29.9295 16.052 29.9 16.0226C29.8705 15.9931 29.8355 15.9697 29.797 15.9538C29.7585 15.9379 29.7173 15.9297 29.6756 15.9297Z" fill="#F8D323"/>
<path d="M6.29311 16.7012L3.10156 17.846L6.39156 27.0178H8.19779C8.96286 26.7434 9.36029 25.2527 9.08614 24.4876L6.29311 16.7012Z" fill="#63BCE7"/>
<path d="M3.10156 17.8467L5.08641 17.1348L8.63179 27.0184H6.39156L3.10156 17.8467Z" fill="#6377E7"/>
<path d="M3.10742 17.8398L6.298 16.6938L6.63575 17.6341L3.44517 18.7801L3.10742 17.8398Z" fill="#F46275"/>
<path d="M3.10742 17.8398L5.09173 17.1271L5.42948 18.0674L3.44517 18.7802L3.10742 17.8398Z" fill="#F43075"/>
<path d="M3.54217 17.6874L1.20809 16.7792C1.14851 16.756 1.09733 16.7153 1.06124 16.6626C1.02516 16.6098 1.00585 16.5474 1.00586 16.4834V16.247C1.00586 16.1628 1.03929 16.0821 1.09878 16.0226C1.15828 15.9631 1.23898 15.9297 1.32312 15.9297H5.30069C5.43789 15.9297 5.57152 15.9735 5.68212 16.0547C5.79271 16.1358 5.87451 16.2502 5.91561 16.3811L6.04396 16.7898L3.54217 17.6874Z" fill="#F8AF23"/>
<path d="M1.3252 15.9297H3.56543C3.48129 15.9297 3.40059 15.9631 3.34109 16.0226C3.28159 16.0821 3.24817 16.1628 3.24817 16.247V16.4835C3.24816 16.5474 3.26746 16.6098 3.30355 16.6626C3.33964 16.7153 3.39082 16.756 3.45039 16.7792L4.70977 17.2692L3.54412 17.6874L1.21004 16.7792C1.15046 16.756 1.09928 16.7153 1.06319 16.6626C1.02711 16.6098 1.00781 16.5474 1.00781 16.4835V16.247C1.00781 16.2053 1.01602 16.164 1.03197 16.1255C1.04793 16.087 1.07131 16.052 1.10078 16.0226C1.13025 15.9931 1.16524 15.9697 1.20375 15.9538C1.24226 15.9379 1.28353 15.9297 1.3252 15.9297Z" fill="#F87023"/>
<path d="M1.49414 2.83469V7.61074C1.49414 7.68397 1.52323 7.75419 1.57501 7.80597C1.62678 7.85775 1.69701 7.88684 1.77023 7.88684H6.75264C6.78961 7.88684 6.82621 7.89427 6.86027 7.90868C6.89432 7.9231 6.92513 7.9442 6.95087 7.97075L7.9626 9.01446C8.00087 9.05393 8.05004 9.08108 8.10383 9.09243C8.15761 9.10378 8.21356 9.09881 8.26451 9.07817C8.31546 9.05753 8.35908 9.02215 8.3898 8.97656C8.42052 8.93097 8.43693 8.87726 8.43693 8.82229V2.83469C8.43693 2.76146 8.40784 2.69124 8.35606 2.63946C8.30429 2.58768 8.23406 2.55859 8.16084 2.55859H1.77023C1.69701 2.55859 1.62678 2.58768 1.57501 2.63946C1.52323 2.69124 1.49414 2.76146 1.49414 2.83469Z" fill="#63BCE7"/>
<path d="M3.73438 7.61074V2.83469C3.73438 2.76146 3.76346 2.69124 3.81524 2.63946C3.86702 2.58768 3.93724 2.55859 4.01047 2.55859H1.77023C1.69701 2.55859 1.62678 2.58768 1.57501 2.63946C1.52323 2.69124 1.49414 2.76146 1.49414 2.83469V7.61062C1.49414 7.68385 1.52323 7.75407 1.57501 7.80585C1.62678 7.85763 1.69701 7.88672 1.77023 7.88672H4.01047C3.93727 7.88672 3.86706 7.85764 3.81528 7.80589C3.76351 7.75414 3.73441 7.68395 3.73438 7.61074Z" fill="#6377E7"/>
<path d="M29.5072 2.83469V7.61074C29.5072 7.68397 29.4782 7.75419 29.4264 7.80597C29.3746 7.85775 29.3044 7.88684 29.2312 7.88684H24.2487C24.2118 7.88684 24.1752 7.89427 24.1411 7.90868C24.1071 7.9231 24.0763 7.9442 24.0505 7.97075L23.0388 9.01446C23.0005 9.05393 22.9513 9.08108 22.8976 9.09243C22.8438 9.10378 22.7878 9.09881 22.7369 9.07817C22.6859 9.05753 22.6423 9.02215 22.6116 8.97656C22.5809 8.93097 22.5645 8.87726 22.5645 8.82229V2.83469C22.5645 2.76146 22.5935 2.69124 22.6453 2.63946C22.6971 2.58768 22.7673 2.55859 22.8405 2.55859H29.2312C29.3044 2.55859 29.3746 2.58768 29.4264 2.63946C29.4782 2.69124 29.5072 2.76146 29.5072 2.83469Z" fill="#F46275"/>
<path d="M27.2663 7.61074V2.83469C27.2663 2.76146 27.2372 2.69124 27.1855 2.63946C27.1337 2.58768 27.0635 2.55859 26.9902 2.55859H29.2305C29.3037 2.55859 29.3739 2.58768 29.4257 2.63946C29.4775 2.69124 29.5066 2.76146 29.5066 2.83469V7.61062C29.5066 7.68385 29.4775 7.75407 29.4257 7.80585C29.3739 7.85763 29.3037 7.88672 29.2305 7.88672H26.9902C27.0634 7.88672 27.1336 7.85764 27.1854 7.80589C27.2372 7.75414 27.2663 7.68395 27.2663 7.61074Z" fill="#F48875"/>
<path d="M13.5335 10.9824C13.4443 10.9825 13.3588 11.018 13.2957 11.0811C13.2327 11.1442 13.1973 11.2297 13.1973 11.3189V11.7912C13.1973 11.8804 13.2327 11.966 13.2958 12.0291C13.3589 12.0922 13.4445 12.1277 13.5337 12.1277C13.623 12.1277 13.7085 12.0922 13.7716 12.0291C13.8347 11.966 13.8702 11.8804 13.8702 11.7912V11.3189C13.8702 11.2297 13.8347 11.1441 13.7715 11.081C13.7084 11.0179 13.6228 10.9824 13.5335 10.9824Z" fill="#3F3679"/>
<path d="M17.4652 10.9824C17.376 10.9825 17.2904 11.018 17.2274 11.0811C17.1643 11.1442 17.1289 11.2297 17.1289 11.3189V11.7912C17.1289 11.8805 17.1644 11.9661 17.2275 12.0292C17.2906 12.0923 17.3762 12.1277 17.4654 12.1277C17.5547 12.1277 17.6403 12.0923 17.7034 12.0292C17.7665 11.9661 17.8019 11.8805 17.8019 11.7912V11.3189C17.8019 11.2297 17.7664 11.1441 17.7032 11.081C17.6401 11.0179 17.5545 10.9824 17.4652 10.9824Z" fill="#3F3679"/>
<path d="M15.877 14.4809C15.8288 14.4809 15.7826 14.5 15.7485 14.5341C15.7145 14.5681 15.6953 14.6143 15.6953 14.6625C15.6953 14.7107 15.7145 14.7569 15.7485 14.7909C15.7826 14.825 15.8288 14.8441 15.877 14.8441C16.0582 14.8442 16.2333 14.7779 16.3691 14.6579C16.505 14.5378 16.5923 14.3723 16.6146 14.1924C16.6369 14.0125 16.5927 13.8306 16.4903 13.681C16.3879 13.5314 16.2344 13.4244 16.0586 13.3801V12.3496C16.0586 12.3014 16.0395 12.2552 16.0054 12.2212C15.9713 12.1871 15.9251 12.168 15.877 12.168C15.8288 12.168 15.7826 12.1871 15.7485 12.2212C15.7145 12.2552 15.6953 12.3014 15.6953 12.3496V13.54C15.6953 13.5881 15.7145 13.6343 15.7485 13.6684C15.7826 13.7025 15.8288 13.7216 15.877 13.7216C15.8796 13.7216 15.882 13.721 15.8846 13.7209C15.9844 13.7233 16.0792 13.765 16.1486 13.8368C16.2179 13.9086 16.2563 14.0049 16.2553 14.1047C16.2543 14.2045 16.214 14.3 16.1432 14.3704C16.0724 14.4408 15.9768 14.4805 15.877 14.481V14.4809Z" fill="#3F3679"/>
<path d="M16.2771 15.353C16.2431 15.3189 16.1969 15.2998 16.1487 15.2998C16.1005 15.2998 16.0544 15.3189 16.0203 15.353C15.9115 15.4619 15.7728 15.5361 15.6218 15.5662C15.4707 15.5963 15.3142 15.5809 15.1719 15.522C15.0297 15.4631 14.9081 15.3633 14.8225 15.2353C14.737 15.1072 14.6914 14.9567 14.6914 14.8027C14.6914 14.7546 14.6723 14.7084 14.6382 14.6743C14.6041 14.6402 14.5579 14.6211 14.5098 14.6211C14.4616 14.6211 14.4154 14.6402 14.3813 14.6743C14.3473 14.7084 14.3281 14.7546 14.3281 14.8027C14.3283 15.0285 14.3954 15.2491 14.5209 15.4367C14.6463 15.6243 14.8246 15.7706 15.0332 15.8569C15.2417 15.9433 15.4712 15.966 15.6926 15.922C15.914 15.878 16.1174 15.7694 16.2771 15.6099C16.294 15.5931 16.3074 15.573 16.3165 15.551C16.3257 15.529 16.3304 15.5053 16.3304 15.4815C16.3304 15.4576 16.3257 15.434 16.3165 15.4119C16.3074 15.3899 16.294 15.3698 16.2771 15.353Z" fill="#3F3679"/>
<path d="M13.6557 10.1727C13.7856 10.1503 13.9189 10.1548 14.047 10.1861C14.1752 10.2173 14.2955 10.2746 14.4006 10.3543C14.4198 10.3689 14.4418 10.3794 14.4651 10.3854C14.4884 10.3914 14.5127 10.3927 14.5366 10.3892C14.5604 10.3857 14.5833 10.3775 14.604 10.365C14.6246 10.3526 14.6426 10.3362 14.6568 10.3167C14.671 10.2973 14.6812 10.2752 14.6869 10.2517C14.6925 10.2283 14.6934 10.204 14.6895 10.1802C14.6856 10.1564 14.677 10.1336 14.6642 10.1132C14.6515 10.0928 14.6348 10.0751 14.6151 10.0612C14.4703 9.95208 14.3046 9.87393 14.1283 9.83156C13.952 9.78919 13.7689 9.7835 13.5904 9.81485C13.4321 9.84183 13.2809 9.90058 13.1459 9.98758C13.0109 10.0746 12.8949 10.188 12.805 10.321C12.7786 10.3614 12.7694 10.4105 12.7793 10.4577C12.7891 10.5048 12.8174 10.5461 12.8577 10.5725C12.898 10.5988 12.9472 10.6081 12.9944 10.5982C13.0415 10.5883 13.0828 10.5601 13.1092 10.5197C13.1721 10.428 13.253 10.35 13.3469 10.2903C13.4408 10.2307 13.5459 10.1907 13.6557 10.1727Z" fill="#3F3679"/>
<path d="M16.6018 10.5723C16.6422 10.5986 16.6913 10.6078 16.7384 10.5979C16.7856 10.588 16.8269 10.5598 16.8532 10.5195C16.9162 10.4278 16.9972 10.3498 17.0911 10.2902C17.1851 10.2306 17.2901 10.1906 17.3999 10.1726C17.5299 10.1503 17.6631 10.1548 17.7912 10.1861C17.9194 10.2173 18.0397 10.2746 18.1448 10.3543C18.164 10.3688 18.1859 10.3794 18.2093 10.3854C18.2326 10.3914 18.2569 10.3926 18.2808 10.3891C18.3046 10.3856 18.3275 10.3774 18.3482 10.365C18.3688 10.3525 18.3868 10.3361 18.401 10.3167C18.4152 10.2972 18.4254 10.2751 18.431 10.2517C18.4366 10.2282 18.4375 10.2039 18.4336 10.1801C18.4298 10.1564 18.4212 10.1336 18.4084 10.1132C18.3956 10.0927 18.3789 10.075 18.3593 10.0611C18.2145 9.95207 18.0488 9.87395 17.8725 9.83158C17.6963 9.78921 17.5132 9.7835 17.3347 9.81481C17.1763 9.84176 17.0251 9.90051 16.8901 9.9875C16.755 10.0745 16.639 10.1879 16.549 10.321C16.5227 10.3613 16.5135 10.4104 16.5234 10.4575C16.5333 10.5047 16.5615 10.5459 16.6018 10.5723Z" fill="#3F3679"/>
<path d="M1.14405 16.9489L3.02935 17.6825C2.98747 17.7003 2.95405 17.7336 2.93602 17.7754C2.91798 17.8172 2.91672 17.8643 2.93248 17.907L3.27069 18.8475L6.13626 26.8358H3.13628C3.08811 26.8358 3.0419 26.855 3.00784 26.889C2.97378 26.9231 2.95464 26.9693 2.95464 27.0175C2.95464 27.0656 2.97378 27.1118 3.00784 27.1459C3.0419 27.18 3.08811 27.1991 3.13628 27.1991H27.866C27.9142 27.1991 27.9604 27.18 27.9945 27.1459C28.0285 27.1118 28.0477 27.0656 28.0477 27.0175C28.0477 26.9693 28.0285 26.9231 27.9945 26.889C27.9604 26.855 27.9142 26.8358 27.866 26.8358H24.8667L27.7316 18.8476L28.069 17.9071C28.0848 17.8644 28.0835 17.8173 28.0655 17.7755C28.0474 17.7337 28.014 17.7004 27.9721 17.6826L29.8574 16.949C29.9513 16.9129 30.0319 16.849 30.0887 16.766C30.1455 16.683 30.1757 16.5847 30.1754 16.4841V16.2476C30.1753 16.1154 30.1227 15.9886 30.0291 15.895C29.9356 15.8015 29.8088 15.7489 29.6765 15.7487H25.6997C25.5237 15.7482 25.3521 15.8041 25.2103 15.9083C25.0684 16.0124 24.9637 16.1593 24.9115 16.3274L24.8398 16.5557L24.7683 16.53C24.7459 16.522 24.7221 16.5184 24.6982 16.5196C24.6744 16.5207 24.651 16.5265 24.6294 16.5367C24.6078 16.5469 24.5885 16.5613 24.5724 16.5789C24.5564 16.5966 24.544 16.6173 24.536 16.6397L24.1986 17.5803L22.7681 21.5684C22.2834 20.6989 21.6119 19.9478 20.8019 19.3691C19.9919 18.7905 19.0636 18.3987 18.084 18.2221L17.3176 17.3525V17.094C18.2956 16.7518 19.1581 16.1422 19.8071 15.3345C20.4561 14.5267 20.8656 13.5532 20.9891 12.5244C21.4092 12.4892 21.801 12.2987 22.088 11.9901C22.3751 11.6815 22.5368 11.2769 22.5415 10.8554C22.5462 10.434 22.3936 10.0259 22.1135 9.71095C21.8334 9.396 21.4459 9.1968 21.0268 9.15227C21.0252 9.04498 21.0205 8.93822 21.0126 8.83198C21.5743 8.61068 22.0533 8.22026 22.3833 7.71477V8.82277C22.3832 8.91395 22.4103 9.00308 22.4613 9.07872C22.5122 9.15435 22.5845 9.21305 22.669 9.24728C22.7536 9.2815 22.8464 9.2897 22.9356 9.2708C23.0248 9.25191 23.1063 9.2068 23.1697 9.14125L24.1813 8.09754C24.1901 8.08847 24.2007 8.08124 24.2124 8.07629C24.2241 8.07135 24.2367 8.06877 24.2493 8.06872H29.2317C29.3531 8.06859 29.4694 8.02034 29.5552 7.93456C29.641 7.84877 29.6893 7.73245 29.6895 7.61111V2.83469C29.6893 2.71334 29.641 2.597 29.5552 2.5112C29.4694 2.42539 29.3531 2.37711 29.2317 2.37695H22.841C22.7197 2.37711 22.6033 2.42539 22.5175 2.5112C22.4317 2.597 22.3834 2.71334 22.3833 2.83469V4.56839C22.1415 4.19554 21.817 3.88347 21.4349 3.65643C21.0529 3.42938 20.6237 3.29347 20.1806 3.25927C19.7376 3.22506 19.2926 3.29348 18.8802 3.4592C18.4679 3.62492 18.0993 3.88348 17.8032 4.21479C17.082 3.88004 16.2962 3.70738 15.5012 3.70898C14.0505 3.71076 12.6586 4.28218 11.6252 5.30018C10.5917 6.31818 9.9994 7.70134 9.97578 9.15179C9.55642 9.19597 9.16863 9.39501 8.88826 9.70997C8.60788 10.0249 8.45508 10.4332 8.45974 10.8548C8.46441 11.2765 8.6262 11.6812 8.91347 11.9899C9.20075 12.2986 9.59284 12.489 10.0131 12.5239C10.1366 13.5527 10.5461 14.5263 11.1951 15.3341C11.8441 16.1418 12.7067 16.7514 13.6848 17.0936V17.3525L12.918 18.2229C11.9384 18.3991 11.0101 18.7905 10.2001 19.369C9.39009 19.9474 8.71857 20.6984 8.23396 21.5678L6.80373 17.5803L6.46636 16.6397C6.45831 16.6173 6.44592 16.5966 6.42988 16.5789C6.41385 16.5613 6.39448 16.5469 6.3729 16.5367C6.35132 16.5265 6.32795 16.5207 6.30411 16.5196C6.28027 16.5184 6.25644 16.522 6.23398 16.53L6.16266 16.5556L6.09109 16.3273C6.03878 16.1593 5.93401 16.0124 5.79214 15.9083C5.65027 15.8041 5.47876 15.7482 5.30277 15.7486H1.32508C1.19281 15.7488 1.06601 15.8014 0.972478 15.8949C0.878949 15.9884 0.826335 16.1152 0.826175 16.2475V16.484C0.825843 16.5846 0.856058 16.6829 0.91282 16.7659C0.969582 16.8489 1.05021 16.9127 1.14405 16.9489ZM21.0286 11.8741V9.51628C21.348 9.55998 21.6408 9.71813 21.8524 9.96136C22.0641 10.2046 22.1802 10.5164 22.1793 10.8388C22.1785 11.1612 22.0606 11.4723 21.8477 11.7144C21.6347 11.9565 21.3411 12.1131 21.0215 12.155C21.0262 12.062 21.0286 11.9683 21.0286 11.8741ZM8.82333 10.8358C8.82286 10.5139 8.93921 10.2028 9.15077 9.96019C9.36234 9.71758 9.65475 9.55998 9.97372 9.51664V11.8741C9.97372 11.9683 9.9761 12.062 9.98086 12.155C9.66092 12.1125 9.36726 11.9554 9.15439 11.7128C8.94152 11.4702 8.82389 11.1586 8.82333 10.8358ZM25.2582 16.4361C25.2874 16.3419 25.3461 16.2596 25.4255 16.2012C25.505 16.1429 25.6011 16.1116 25.6997 16.1119H29.6774C29.7133 16.112 29.7478 16.1263 29.7732 16.1517C29.7986 16.1771 29.8129 16.2116 29.813 16.2475V16.484C29.8129 16.5113 29.8045 16.5379 29.7891 16.5604C29.7737 16.5829 29.7519 16.6003 29.7265 16.6103L27.4558 17.4943L25.182 16.6787L25.2582 16.4361ZM24.8167 16.9333L25.5144 17.1836L27.3969 17.8588L27.6659 17.9557L27.4512 18.5542L24.6015 17.5322L24.8167 16.9333ZM17.7898 18.4383L17.15 21.1145L15.7748 20.374L17.2798 18.4132C17.3041 18.3814 17.3173 18.3426 17.3173 18.3026V17.9015L17.7898 18.4383ZM15.5012 20.1346L14.048 18.2412V17.2065C14.9993 17.4667 16.003 17.4667 16.9543 17.2065V18.2412L15.5012 20.1346ZM22.7466 2.83469C22.7466 2.80965 22.7566 2.78564 22.7743 2.76793C22.792 2.75023 22.816 2.74027 22.841 2.74023H29.2315C29.2565 2.74027 29.2805 2.75023 29.2983 2.76793C29.316 2.78564 29.3259 2.80965 29.326 2.83469V7.61075C29.3259 7.63578 29.316 7.65977 29.2982 7.67746C29.2805 7.69514 29.2565 7.70508 29.2315 7.70508H24.2492C24.1879 7.7052 24.1272 7.71757 24.0708 7.74146C24.0143 7.76536 23.9632 7.80029 23.9204 7.84421L22.9088 8.88804C22.8957 8.90154 22.8789 8.91082 22.8605 8.91471C22.8422 8.91859 22.823 8.9169 22.8056 8.90986C22.7882 8.90281 22.7733 8.89072 22.7627 8.87514C22.7522 8.85957 22.7466 8.84121 22.7466 8.82241V2.83469ZM10.337 9.23655C10.3387 7.86744 10.8833 6.55489 11.8514 5.58677C12.8195 4.61865 14.1321 4.074 15.5012 4.07227C16.2884 4.07057 17.0652 4.25168 17.7705 4.60132C17.8074 4.61959 17.8495 4.62475 17.8898 4.61595C17.93 4.60715 17.9661 4.58491 17.9921 4.55289C18.2765 4.20088 18.6502 3.93167 19.0742 3.77337C19.4981 3.61507 19.9568 3.57348 20.4023 3.65294C20.8479 3.73241 21.2639 3.93001 21.607 4.22512C21.9501 4.52023 22.2077 4.90204 22.3529 5.33067C22.3638 5.36264 22.3737 5.39497 22.3833 5.42755V6.86178C22.3817 6.8659 22.3795 6.86965 22.3782 6.87389C22.3646 6.91878 22.3499 6.96318 22.3341 7.00709C22.1138 7.61138 21.6715 8.10901 21.0972 8.3987C20.523 8.68839 19.8599 8.74836 19.243 8.56642C19.2183 8.55916 19.1924 8.55722 19.1669 8.56073C15.2182 9.10323 12.979 7.17251 12.9565 7.15313C12.9304 7.12982 12.8982 7.11452 12.8636 7.10909C12.8291 7.10365 12.7937 7.1083 12.7617 7.12248C12.7298 7.13666 12.7026 7.15977 12.6834 7.18903C12.6643 7.21829 12.654 7.25245 12.6538 7.28743C12.6383 9.08627 11.0582 9.51313 10.9913 9.53032C10.952 9.54022 10.9172 9.56293 10.8924 9.59485C10.8675 9.62676 10.8541 9.66606 10.8541 9.70652V10.2393H10.337V9.23655ZM10.337 11.8741V10.6026H11.0358C11.084 10.6026 11.1302 10.5835 11.1643 10.5494C11.1983 10.5153 11.2175 10.4691 11.2175 10.421V9.83802C11.6262 9.68847 12.8185 9.12878 12.9952 7.64175C13.7248 8.15797 15.8481 9.37218 19.1778 8.92534C19.6604 9.06128 20.1703 9.06817 20.6564 8.94532C20.6618 9.0422 20.6654 9.13907 20.6654 9.23595V11.8741C20.6654 13.2437 20.1214 14.5573 19.1529 15.5258C18.1844 16.4942 16.8709 17.0383 15.5012 17.0383C14.1316 17.0383 12.818 16.4942 11.8496 15.5258C10.8811 14.5573 10.337 13.2437 10.337 11.8741ZM13.6848 17.9018V18.3028C13.6848 18.3428 13.698 18.3817 13.7223 18.4134L15.2272 20.3743L13.8521 21.1148L13.2122 18.4386L13.6848 17.9018ZM6.52303 17.8738L8.64605 23.7924C8.6541 23.8148 8.6665 23.8355 8.68253 23.8531C8.69857 23.8708 8.71792 23.8851 8.73949 23.8953C8.76107 23.9055 8.78444 23.9113 8.80826 23.9125C8.83209 23.9136 8.85591 23.9101 8.87836 23.902C8.90082 23.894 8.92147 23.8816 8.93913 23.8655C8.95679 23.8495 8.97112 23.8302 8.9813 23.8086C8.99149 23.787 8.99732 23.7636 8.99847 23.7398C8.99962 23.716 8.99607 23.6922 8.98801 23.6697L8.40047 22.0318C8.83275 21.1543 9.46155 20.3882 10.238 19.7932C11.0145 19.1982 11.9177 18.7903 12.8774 18.6011L13.5535 21.4289C13.56 21.4559 13.5726 21.4811 13.5903 21.5026C13.6081 21.524 13.6305 21.541 13.6559 21.5524C13.6813 21.5638 13.709 21.5692 13.7368 21.5682C13.7646 21.5672 13.7918 21.5598 13.8163 21.5466L15.5012 20.6393L17.1861 21.5466C17.2106 21.5598 17.2378 21.5672 17.2656 21.5682C17.2934 21.5692 17.321 21.5638 17.3464 21.5524C17.3718 21.541 17.3943 21.524 17.412 21.5026C17.4298 21.4811 17.4424 21.4559 17.4488 21.4289L18.1249 18.601C19.0845 18.7904 19.9876 19.1984 20.7641 19.7933C21.5405 20.3882 22.1695 21.1539 22.6021 22.0312L22.0143 23.6698C22.0063 23.6923 22.0027 23.7161 22.0039 23.7399C22.005 23.7638 22.0108 23.7871 22.021 23.8087C22.0312 23.8303 22.0455 23.8496 22.0632 23.8657C22.0809 23.8817 22.1015 23.8941 22.124 23.9022C22.1464 23.9102 22.1702 23.9138 22.1941 23.9126C22.2179 23.9115 22.2413 23.9056 22.2628 23.8954C22.2844 23.8853 22.3038 23.8709 22.3198 23.8533C22.3358 23.8356 22.3482 23.815 22.3563 23.7925L24.4792 17.8739L27.3289 18.8961L24.4806 26.836H20.8091V24.4342C20.8091 24.386 20.7899 24.3398 20.7559 24.3057C20.7218 24.2717 20.6756 24.2525 20.6274 24.2525C20.5793 24.2525 20.5331 24.2717 20.499 24.3057C20.4649 24.3398 20.4458 24.386 20.4458 24.4342V26.8358H10.5565V24.4342C10.5565 24.386 10.5374 24.3398 10.5033 24.3057C10.4693 24.2717 10.4231 24.2525 10.3749 24.2525C10.3267 24.2525 10.2805 24.2717 10.2465 24.3057C10.2124 24.3398 10.1933 24.386 10.1933 24.4342V26.8358H6.52158L3.67345 18.896L6.52303 17.8738ZM6.18566 16.9333L6.40036 17.5318L3.55066 18.5539L3.33596 17.9553L3.60491 17.8584L5.48792 17.183L6.18566 16.9333ZM1.18933 16.2475C1.1894 16.2116 1.20371 16.1771 1.22913 16.1517C1.25455 16.1263 1.28901 16.112 1.32496 16.1119H5.30265C5.40125 16.1116 5.49735 16.1429 5.57684 16.2013C5.65632 16.2596 5.71501 16.3419 5.74428 16.4361L5.82032 16.6782L3.54655 17.4938L1.2758 16.6098C1.25041 16.5998 1.2286 16.5825 1.21319 16.5599C1.19778 16.5374 1.18947 16.5108 1.18933 16.4835V16.2475Z" fill="#3F3679"/>
<path d="M3.13477 28.2578H0.894531C0.846357 28.2578 0.800156 28.2769 0.766092 28.311C0.732028 28.3451 0.712891 28.3913 0.712891 28.4395C0.712891 28.4876 0.732028 28.5338 0.766092 28.5679C0.800156 28.602 0.846357 28.6211 0.894531 28.6211H3.13477C3.18294 28.6211 3.22914 28.602 3.26321 28.5679C3.29727 28.5338 3.31641 28.4876 3.31641 28.4395C3.31641 28.3913 3.29727 28.3451 3.26321 28.311C3.22914 28.2769 3.18294 28.2578 3.13477 28.2578Z" fill="#3F3679"/>
<path d="M30.1055 28.2578H27.8652C27.8171 28.2578 27.7709 28.2769 27.7368 28.311C27.7027 28.3451 27.6836 28.3913 27.6836 28.4395C27.6836 28.4876 27.7027 28.5338 27.7368 28.5679C27.7709 28.602 27.8171 28.6211 27.8652 28.6211H30.1055C30.1536 28.6211 30.1998 28.602 30.2339 28.5679C30.268 28.5338 30.2871 28.4876 30.2871 28.4395C30.2871 28.3913 30.268 28.3451 30.2339 28.311C30.1998 28.2769 30.1536 28.2578 30.1055 28.2578Z" fill="#3F3679"/>
<path d="M26.0758 28.2578H4.92383C4.87565 28.2578 4.82945 28.2769 4.79539 28.311C4.76132 28.3451 4.74219 28.3913 4.74219 28.4395C4.74219 28.4876 4.76132 28.5338 4.79539 28.5679C4.82945 28.602 4.87565 28.6211 4.92383 28.6211H26.0758C26.1239 28.6211 26.1701 28.602 26.2042 28.5679C26.2383 28.5338 26.2574 28.4876 26.2574 28.4395C26.2574 28.3913 26.2383 28.3451 26.2042 28.311C26.1701 28.2769 26.1239 28.2578 26.0758 28.2578Z" fill="#3F3679"/>
<path d="M0.894531 27.1992H1.85638C1.90455 27.1992 1.95075 27.1801 1.98482 27.146C2.01888 27.112 2.03802 27.0658 2.03802 27.0176C2.03802 26.9694 2.01888 26.9232 1.98482 26.8891C1.95075 26.8551 1.90455 26.8359 1.85638 26.8359H0.894531C0.846357 26.8359 0.800156 26.8551 0.766092 26.8891C0.732028 26.9232 0.712891 26.9694 0.712891 27.0176C0.712891 27.0658 0.732028 27.112 0.766092 27.146C0.800156 27.1801 0.846357 27.1992 0.894531 27.1992Z" fill="#3F3679"/>
<path d="M29.1426 26.8359C29.0944 26.8359 29.0482 26.8551 29.0141 26.8891C28.9801 26.9232 28.9609 26.9694 28.9609 27.0176C28.9609 27.0658 28.9801 27.112 29.0141 27.146C29.0482 27.1801 29.0944 27.1992 29.1426 27.1992H30.1044C30.1526 27.1992 30.1988 27.1801 30.2329 27.146C30.2669 27.112 30.2861 27.0658 30.2861 27.0176C30.2861 26.9694 30.2669 26.9232 30.2329 26.8891C30.1988 26.8551 30.1526 26.8359 30.1044 26.8359H29.1426Z" fill="#3F3679"/>
<path d="M1.76828 8.06836H6.75068C6.76335 8.06839 6.77587 8.07095 6.78754 8.07587C6.7992 8.0808 6.80977 8.088 6.81862 8.09706L7.83023 9.14077C7.89366 9.2062 7.97517 9.2512 8.06433 9.27002C8.15349 9.28885 8.24624 9.28063 8.3307 9.24642C8.41516 9.21222 8.48749 9.15358 8.53843 9.07802C8.58937 9.00246 8.61659 8.91342 8.61662 8.82229V2.83469C8.61646 2.71334 8.56818 2.597 8.48237 2.5112C8.39656 2.42539 8.28023 2.37711 8.15888 2.37695H1.76828C1.64693 2.37711 1.5306 2.42539 1.44479 2.5112C1.35898 2.597 1.31071 2.71334 1.31055 2.83469V7.61075C1.31071 7.73209 1.35899 7.84841 1.4448 7.9342C1.53061 8.01998 1.64694 8.06823 1.76828 8.06836ZM1.67383 2.83469C1.67386 2.80965 1.68382 2.78564 1.70153 2.76793C1.71923 2.75023 1.74324 2.74027 1.76828 2.74023H8.15888C8.18392 2.74027 8.20793 2.75023 8.22563 2.76793C8.24334 2.78564 8.2533 2.80965 8.25333 2.83469V8.82229C8.25331 8.84109 8.24768 8.85945 8.23717 8.87503C8.22665 8.8906 8.21172 8.90269 8.1943 8.90974C8.17687 8.91679 8.15774 8.91848 8.13935 8.91459C8.12096 8.9107 8.10415 8.90142 8.09107 8.88793L7.07933 7.8441C7.03658 7.80019 6.98548 7.76526 6.92905 7.74137C6.87261 7.71748 6.81197 7.7051 6.75068 7.70496H1.76828C1.74325 7.70496 1.71925 7.69502 1.70154 7.67734C1.68383 7.65965 1.67386 7.63566 1.67383 7.61063V2.83469Z" fill="#3F3679"/>
<path d="M2.92801 5.5589C2.93222 5.56702 2.93442 5.57603 2.93443 5.58518V6.2323C2.93443 6.24743 2.94043 6.26194 2.95113 6.27263C2.96183 6.28333 2.97633 6.28934 2.99146 6.28934H3.40318C3.41831 6.28934 3.43281 6.28333 3.44351 6.27263C3.45421 6.26194 3.46021 6.24743 3.46021 6.2323V5.5853C3.46022 5.57615 3.46242 5.56714 3.46663 5.55902L4.16595 4.21234C4.17045 4.20364 4.17265 4.19392 4.17231 4.18413C4.17198 4.17434 4.16914 4.16479 4.16406 4.15642C4.15897 4.14804 4.15182 4.14111 4.14329 4.13629C4.13476 4.13147 4.12513 4.12893 4.11533 4.12891H3.65215C3.64133 4.12891 3.63074 4.13198 3.62161 4.13777C3.61248 4.14356 3.60518 4.15182 3.60056 4.1616L3.25193 4.89967C3.24733 4.90948 3.24003 4.91778 3.23089 4.9236C3.22174 4.92941 3.21113 4.9325 3.20029 4.9325C3.18945 4.9325 3.17883 4.92941 3.16969 4.9236C3.16054 4.91778 3.15324 4.90948 3.14864 4.89967L2.80013 4.1616C2.79551 4.15183 2.7882 4.14357 2.77907 4.13779C2.76994 4.132 2.75936 4.12892 2.74855 4.12891H2.27967C2.26987 4.12893 2.26025 4.13147 2.25171 4.13629C2.24318 4.14111 2.23603 4.14804 2.23095 4.15642C2.22586 4.16479 2.22302 4.17434 2.22269 4.18413C2.22236 4.19392 2.22455 4.20364 2.22906 4.21234L2.92801 5.5589Z" fill="#3F3679"/>
<path d="M4.73451 6.20584C4.86304 6.27075 5.00427 6.30657 5.1482 6.31075C5.29212 6.31494 5.4352 6.28739 5.56728 6.23005C5.67928 6.17924 5.7777 6.10269 5.85451 6.00664C5.91421 5.93203 5.95846 5.84628 5.98469 5.7544C5.98678 5.746 5.98692 5.73724 5.9851 5.72878C5.98327 5.72033 5.97953 5.7124 5.97416 5.70562C5.96879 5.69883 5.96194 5.69337 5.95413 5.68965C5.94632 5.68593 5.93776 5.68405 5.9291 5.68416H5.48844C5.47673 5.6845 5.46538 5.68832 5.45585 5.69514C5.44632 5.70195 5.43903 5.71145 5.43492 5.72243C5.41608 5.76671 5.38577 5.80516 5.34713 5.83384C5.29121 5.8741 5.22344 5.89452 5.15459 5.89184C5.11323 5.89338 5.07197 5.88675 5.03318 5.87233C4.99439 5.85791 4.95882 5.83598 4.92851 5.8078C4.87497 5.75051 4.84262 5.67663 4.83684 5.59843C4.83554 5.59021 4.83602 5.58181 4.83824 5.5738C4.84046 5.56578 4.84438 5.55833 4.84973 5.55196C4.85508 5.54559 4.86174 5.54044 4.86925 5.53686C4.87676 5.53329 4.88495 5.53136 4.89327 5.53122H6.01339C6.02306 5.48497 6.02817 5.43788 6.02864 5.39063C6.03165 5.23979 5.99534 5.09076 5.92329 4.95821C5.85422 4.83419 5.75071 4.73283 5.62528 4.66637C5.4865 4.59778 5.33373 4.56223 5.17893 4.5625C5.02412 4.56277 4.87148 4.59886 4.73294 4.66794C4.60402 4.73676 4.49825 4.84206 4.42887 4.97068C4.3572 5.11537 4.32004 5.2747 4.32031 5.43617C4.32059 5.59763 4.35829 5.75684 4.43045 5.90128C4.50002 6.03022 4.60569 6.13606 4.73451 6.20584ZM4.94037 5.06138C5.00599 5.00341 5.09131 4.97278 5.17881 4.97577C5.26361 4.97329 5.34615 5.00336 5.40949 5.0598C5.46101 5.10883 5.49218 5.17545 5.4968 5.24641C5.49784 5.25455 5.49715 5.26283 5.49477 5.27068C5.49239 5.27854 5.48838 5.28581 5.48299 5.29201C5.4776 5.2982 5.47097 5.30319 5.46352 5.30665C5.45607 5.3101 5.44797 5.31194 5.43976 5.31204H4.89944C4.89072 5.31188 4.88214 5.30977 4.87433 5.30585C4.86653 5.30194 4.85971 5.29632 4.85436 5.28942C4.84902 5.28252 4.84529 5.27451 4.84345 5.26597C4.84161 5.25744 4.84171 5.2486 4.84374 5.24011C4.85602 5.17166 4.89004 5.10898 4.94074 5.06138H4.94037Z" fill="#3F3679"/>
<path d="M7.04408 5.94697C6.96991 5.95025 6.89661 5.92994 6.83471 5.88896C6.79195 5.85856 6.7616 5.81376 6.74921 5.76278C6.74531 5.75032 6.73743 5.73947 6.72678 5.73191C6.71613 5.72434 6.7033 5.72047 6.69024 5.72088H6.30758C6.29903 5.7208 6.29057 5.72264 6.28282 5.72628C6.27508 5.72991 6.26825 5.73523 6.26284 5.74186C6.25743 5.74849 6.25359 5.75625 6.25158 5.76457C6.24958 5.77288 6.24948 5.78154 6.25127 5.78991C6.28404 5.93735 6.36898 6.068 6.49043 6.15779C6.65355 6.26687 6.84749 6.32046 7.04347 6.31061C7.16479 6.31346 7.28542 6.29163 7.39803 6.24643C7.48961 6.21015 7.56907 6.14874 7.62726 6.06927C7.68043 5.99321 7.70823 5.90231 7.7067 5.80952C7.71216 5.70577 7.67956 5.6036 7.61503 5.52217C7.55718 5.45317 7.48271 5.40003 7.39864 5.36777C7.29379 5.32994 7.18665 5.2988 7.07786 5.27453C6.98721 5.25723 6.89858 5.23061 6.81339 5.19509C6.78887 5.18625 6.76766 5.17007 6.75265 5.14875C6.73763 5.12743 6.72954 5.10201 6.72947 5.07594C6.7282 5.05547 6.73167 5.03499 6.73961 5.01609C6.74755 4.99719 6.75975 4.98037 6.77525 4.96695C6.81424 4.93896 6.86178 4.92547 6.90966 4.92881C6.97735 4.92632 7.04381 4.94737 7.09772 4.98839C7.13716 5.01989 7.16661 5.06217 7.18249 5.11009C7.18602 5.1219 7.19319 5.13229 7.20297 5.13979C7.21276 5.14729 7.22466 5.15152 7.23698 5.15186H7.61116C7.6198 5.15198 7.62835 5.15011 7.63615 5.14642C7.64396 5.14272 7.65082 5.13729 7.65621 5.13053C7.66159 5.12378 7.66536 5.11589 7.66723 5.10745C7.6691 5.09902 7.66901 5.09027 7.66698 5.08187C7.63072 4.94169 7.55129 4.81647 7.43993 4.72392C7.29212 4.60992 7.10844 4.5525 6.92201 4.56202C6.7464 4.55108 6.57243 4.6015 6.42989 4.70466C6.37391 4.74867 6.329 4.80517 6.29876 4.86964C6.26852 4.93411 6.2538 5.00476 6.25576 5.07594C6.25008 5.17683 6.28157 5.2763 6.34427 5.35554C6.40087 5.42206 6.47346 5.47307 6.55522 5.50376C6.65685 5.54001 6.76103 5.56863 6.86692 5.58938C6.96036 5.6079 7.05189 5.63502 7.14035 5.67039C7.16586 5.68007 7.18769 5.69751 7.20276 5.72026C7.21784 5.743 7.2254 5.7699 7.22439 5.79717C7.22523 5.8176 7.22155 5.83795 7.21362 5.85679C7.20568 5.87563 7.19369 5.89249 7.17849 5.90616C7.14032 5.93601 7.0924 5.95056 7.04408 5.94697Z" fill="#3F3679"/>
<path d="M24.112 6.28958H24.5204C24.5355 6.28958 24.55 6.28357 24.5607 6.27288C24.5714 6.26218 24.5774 6.24767 24.5774 6.23255V5.15372C24.5775 5.14146 24.5815 5.12954 24.5888 5.11972C24.5961 5.10989 24.6064 5.10268 24.6182 5.09916C24.6299 5.09563 24.6425 5.09597 24.654 5.10012C24.6655 5.10428 24.6754 5.11203 24.6822 5.12224L25.4345 6.26391C25.4398 6.2718 25.4468 6.27828 25.4552 6.28276C25.4635 6.28724 25.4728 6.28958 25.4823 6.28958H25.917C25.9321 6.28958 25.9466 6.28357 25.9573 6.27288C25.968 6.26218 25.974 6.24767 25.974 6.23255V4.18606C25.974 4.17092 25.968 4.15641 25.9573 4.14569C25.9466 4.13497 25.9321 4.12894 25.917 4.12891H25.5085C25.4934 4.12894 25.4789 4.13497 25.4682 4.14569C25.4575 4.15641 25.4515 4.17092 25.4515 4.18606V5.27591C25.4515 5.28822 25.4476 5.30022 25.4402 5.3101C25.4329 5.31999 25.4226 5.32723 25.4108 5.33074C25.3989 5.33426 25.3863 5.33386 25.3748 5.32961C25.3632 5.32536 25.3533 5.31748 25.3466 5.30715L24.5942 4.15494C24.589 4.14698 24.5819 4.14044 24.5735 4.13591C24.5652 4.13139 24.5558 4.12902 24.5463 4.12903H24.1117C24.0966 4.12906 24.0821 4.1351 24.0714 4.14581C24.0607 4.15653 24.0547 4.17105 24.0547 4.18618V6.23267C24.0547 6.24017 24.0562 6.24759 24.0591 6.25451C24.062 6.26143 24.0662 6.26772 24.0715 6.27301C24.0768 6.27829 24.0832 6.28248 24.0901 6.28532C24.097 6.28817 24.1045 6.28961 24.112 6.28958Z" fill="#3F3679"/>
<path d="M26.677 6.2051C26.8185 6.27447 26.974 6.31054 27.1316 6.31054C27.2892 6.31054 27.4447 6.27447 27.5862 6.2051C27.7182 6.13618 27.8275 6.0306 27.901 5.90103C27.9763 5.75777 28.0156 5.59835 28.0156 5.43652C28.0156 5.27468 27.9763 5.11527 27.901 4.972C27.8275 4.84245 27.7182 4.73687 27.5862 4.66794C27.4447 4.59857 27.2892 4.5625 27.1316 4.5625C26.974 4.5625 26.8185 4.59857 26.677 4.66794C26.5443 4.73652 26.4344 4.84215 26.3607 4.972C26.2854 5.11527 26.2461 5.27468 26.2461 5.43652C26.2461 5.59835 26.2854 5.75777 26.3607 5.90103C26.4344 6.0309 26.5443 6.13653 26.677 6.2051ZM26.8803 5.12325C26.9122 5.0882 26.9511 5.06035 26.9946 5.04155C27.0381 5.02276 27.0851 5.01346 27.1324 5.01426C27.1796 5.0134 27.2263 5.02268 27.2696 5.04149C27.3128 5.06029 27.3515 5.08818 27.383 5.12325C27.4554 5.21092 27.4915 5.32305 27.4837 5.43652C27.4917 5.54953 27.4556 5.66124 27.383 5.74821C27.3512 5.78281 27.3124 5.81023 27.2692 5.82867C27.226 5.84711 27.1794 5.85613 27.1324 5.85514C27.0852 5.85608 27.0384 5.84704 26.9949 5.82861C26.9515 5.81018 26.9124 5.78279 26.8803 5.74821C26.8066 5.66176 26.7698 5.54983 26.7779 5.43652C26.77 5.32277 26.8067 5.21043 26.8802 5.12325H26.8803Z" fill="#3F3679"/>
</svg>
